<svg width="41" height="40" viewBox="0 0 41 40" fill="none" xmlns="http://www.w3.org/2000/svg">
<path d="M8.99998 8.33335C8.99998 7.89133 9.17558 7.4674 9.48814 7.15484C9.8007 6.84228 10.2246 6.66669 10.6667 6.66669H14C14.442 6.66669 14.8659 6.84228 15.1785 7.15484C15.4911 7.4674 15.6667 7.89133 15.6667 8.33335V31.6667C15.6667 32.1087 15.4911 32.5326 15.1785 32.8452C14.8659 33.1578 14.442 33.3334 14 33.3334H10.6667C10.2246 33.3334 9.8007 33.1578 9.48814 32.8452C9.17558 32.5326 8.99998 32.1087 8.99998 31.6667V8.33335Z" stroke="black" stroke-width="1.66667" stroke-linecap="round" stroke-linejoin="round"/>
<path d="M15.6667 8.33335C15.6667 7.89133 15.8423 7.4674 16.1548 7.15484C16.4674 6.84228 16.8913 6.66669 17.3333 6.66669H20.6667C21.1087 6.66669 21.5326 6.84228 21.8452 7.15484C22.1577 7.4674 22.3333 7.89133 22.3333 8.33335V31.6667C22.3333 32.1087 22.1577 32.5326 21.8452 32.8452C21.5326 33.1578 21.1087 33.3334 20.6667 33.3334H17.3333C16.8913 33.3334 16.4674 33.1578 16.1548 32.8452C15.8423 32.5326 15.6667 32.1087 15.6667 31.6667V8.33335Z" stroke="black" stroke-width="1.66667" stroke-linecap="round" stroke-linejoin="round"/>
<path d="M8.99998 13.3333H15.6667" stroke="black" stroke-width="1.66667" stroke-linecap="round" stroke-linejoin="round"/>
<path d="M15.6667 26.6667H22.3333" stroke="black" stroke-width="1.66667" stroke-linecap="round" stroke-linejoin="round"/>
<path d="M23.6717 7.59999L27.3117 6.71666C28.2483 6.49166 29.2 7.03332 29.4483 7.93666L35.6067 30.3C35.7153 30.7094 35.6672 31.1446 35.4717 31.5204C35.2763 31.8962 34.9476 32.1855 34.55 32.3317L34.3283 32.4L30.6883 33.2833C29.7517 33.5083 28.8 32.9667 28.5517 32.0633L22.3933 9.69999C22.2847 9.29057 22.3328 8.85534 22.5283 8.47954C22.7237 8.10375 23.0524 7.81445 23.45 7.66832L23.6717 7.59999Z" stroke="black" stroke-width="1.66667" stroke-linecap="round" stroke-linejoin="round"/>
<path d="M24 15L30.6667 13.3333" stroke="black" stroke-width="1.66667" stroke-linecap="round" stroke-linejoin="round"/>
<path d="M27.3333 26.6667L33.8717 25.0333" stroke="black" stroke-width="1.66667" stroke-linecap="round" stroke-linejoin="round"/>
</svg>
