<svg width="64" height="64" viewBox="0 0 64 64" fill="none" xmlns="http://www.w3.org/2000/svg">
<path d="M10.6667 18.6666C10.6667 17.2522 11.2286 15.8956 12.2288 14.8954C13.2289 13.8952 14.5855 13.3333 16 13.3333H48C49.4145 13.3333 50.771 13.8952 51.7712 14.8954C52.7714 15.8956 53.3333 17.2522 53.3333 18.6666V50.6666C53.3333 52.0811 52.7714 53.4377 51.7712 54.4379C50.771 55.4381 49.4145 56 48 56H16C14.5855 56 13.2289 55.4381 12.2288 54.4379C11.2286 53.4377 10.6667 52.0811 10.6667 50.6666V18.6666Z" stroke="#232A69" stroke-width="4" stroke-linecap="round" stroke-linejoin="round"/>
<path d="M42.6667 8V18.6667" stroke="#232A69" stroke-width="4" stroke-linecap="round" stroke-linejoin="round"/>
<path d="M21.3333 8V18.6667" stroke="#232A69" stroke-width="4" stroke-linecap="round" stroke-linejoin="round"/>
<path d="M10.6667 29.3333H53.3333" stroke="#232A69" stroke-width="4" stroke-linecap="round" stroke-linejoin="round"/>
<path d="M18.6667 37.3333H18.7014" stroke="#232A69" stroke-width="4" stroke-linecap="round" stroke-linejoin="round"/>
<path d="M26.6934 37.3333H26.7067" stroke="#232A69" stroke-width="4" stroke-linecap="round" stroke-linejoin="round"/>
<path d="M34.6934 37.3333H34.7067" stroke="#232A69" stroke-width="4" stroke-linecap="round" stroke-linejoin="round"/>
<path d="M42.7067 37.3333H42.7201" stroke="#232A69" stroke-width="4" stroke-linecap="round" stroke-linejoin="round"/>
<path d="M34.7067 45.3333H34.7201" stroke="#232A69" stroke-width="4" stroke-linecap="round" stroke-linejoin="round"/>
<path d="M18.6934 45.3333H18.7067" stroke="#232A69" stroke-width="4" stroke-linecap="round" stroke-linejoin="round"/>
<path d="M26.6934 45.3333H26.7067" stroke="#232A69" stroke-width="4" stroke-linecap="round" stroke-linejoin="round"/>
</svg>
