<svg width="64" height="64" viewBox="0 0 64 64" fill="none" xmlns="http://www.w3.org/2000/svg">
<path d="M40 13.3333C40 14.0406 40.281 14.7188 40.781 15.2189C41.2811 15.719 41.9594 16 42.6667 16C43.3739 16 44.0522 15.719 44.5523 15.2189C45.0524 14.7188 45.3333 14.0406 45.3333 13.3333C45.3333 12.6261 45.0524 11.9478 44.5523 11.4477C44.0522 10.9476 43.3739 10.6667 42.6667 10.6667C41.9594 10.6667 41.2811 10.9476 40.781 11.4477C40.281 11.9478 40 12.6261 40 13.3333Z" fill="#232A69" stroke="#232A69" stroke-width="4" stroke-linecap="round" stroke-linejoin="round"/>
<path d="M13.3333 53.3333L26.6667 52L29.3333 46.6667" stroke="#232A69" stroke-width="4" stroke-linecap="round" stroke-linejoin="round"/>
<path d="M48 53.3333V40H33.3333L40 22.6667L25.3333 25.3333L29.3333 30.6667" stroke="#232A69" stroke-width="4" stroke-linecap="round" stroke-linejoin="round"/>
</svg>
