<svg width="64" height="64" viewBox="0 0 64 64" fill="none" xmlns="http://www.w3.org/2000/svg">
<path d="M24 16C24 18.1217 24.8429 20.1566 26.3431 21.6569C27.8434 23.1571 29.8783 24 32 24C34.1217 24 36.1566 23.1571 37.6569 21.6569C39.1571 20.1566 40 18.1217 40 16C40 13.8783 39.1571 11.8434 37.6569 10.3431C36.1566 8.84286 34.1217 8 32 8C29.8783 8 27.8434 8.84286 26.3431 10.3431C24.8429 11.8434 24 13.8783 24 16Z" stroke="#232A69" stroke-width="4" stroke-linecap="round" stroke-linejoin="round"/>
<path d="M18.2267 24H45.7733C46.3979 23.9999 47.0026 24.219 47.4821 24.6191C47.9617 25.0192 48.2855 25.5749 48.3973 26.1893L52.7627 50.1893C52.8326 50.5737 52.8172 50.9687 52.7176 51.3464C52.6181 51.7242 52.4367 52.0754 52.1864 52.3754C51.9361 52.6753 51.6229 52.9165 51.2691 53.0821C50.9152 53.2476 50.5293 53.3334 50.1387 53.3333H13.8613C13.4707 53.3334 13.0848 53.2476 12.7309 53.0821C12.3771 52.9165 12.0639 52.6753 11.8136 52.3754C11.5633 52.0754 11.3819 51.7242 11.2824 51.3464C11.1828 50.9687 11.1674 50.5737 11.2373 50.1893L15.6027 26.1893C15.7145 25.5749 16.0384 25.0192 16.5179 24.6191C16.9974 24.219 17.6022 23.9999 18.2267 24Z" stroke="#232A69" stroke-width="4" stroke-linecap="round" stroke-linejoin="round"/>
</svg>
